# xmcd CD database file
#
# Track frame offsets:
#	150
#	14054
#	22113
#	37512
#	48572
#	58094
#	66882
#	74097
#	84806
#	97681
#	110245
#	116909
#	127145
#	134485
#	149190
#	159032
#	170120
#	179741
#	186550
#
# Disc length: 2598 seconds
#
# Revision: 0
# Processed by: cddbd v1.5.2PL0 Copyright (c) Steve Scherf et al.
# Submitted via: CDex 1.70beta2
#
DISCID=2a0a2413
DTITLE=Frank Sinatra - Platinum CD4
DYEAR=1998
DGENRE=Jazz
TTITLE0=They Say It's Wonderful
TTITLE1=The Right Kind Of Love
TTITLE2=Ol' Man River
TTITLE3=Suddenly It's Spring
TTITLE4=Love Me Or Leave Me
TTITLE5=For You
TTITLE6=You're The Top
TTITLE7=You've Got A Hold On Me
TTITLE8=A Good Man Is Hard To Find
TTITLE9=It's All Up To You
TTITLE10=Somebody Loves Me
TTITLE11=One Hundred Years From Today
TTITLE12=A Wing And A Prayer
TTITLE13=Lilly Belle
TTITLE14=Between The Devil And The Deep Blue Sea
TTITLE15=That's My Affair
TTITLE16=It's Magic
TTITLE17=Dance, Ballerina, Dance
TTITLE18=That's For Me
EXTD=YEAR: 1998
EXTT0=
EXTT1=
EXTT2=
EXTT3=
EXTT4=
EXTT5=
EXTT6=
EXTT7=
EXTT8=
EXTT9=
EXTT10=
EXTT11=
EXTT12=
EXTT13=
EXTT14=
EXTT15=
EXTT16=
EXTT17=
EXTT18=
PLAYORDER=
